# xmcd
#
# Track frame offsets: 
#        150
#        9682
#        34372
#        60425
#        85322
#        111125
#        136430
#        161477
#        187107
#
# Disc length: 2834 seconds
#
# Revision: 1
# Processed by: cddbd v1.5.2PL0 Copyright (c) Steve Scherf et al.
# Submitted via: ExactAudioCopy v0.95b4
#
DISCID=770b1009
DTITLE=Wang Sheng-di - Crystal Serenity
DYEAR=1900
DGENRE=Instrumental
TTITLE0=Blue Serenity
TTITLE1=Sky
TTITLE2=True Blue
TTITLE3=Breezes
TTITLE4=Children's Tales
TTITLE5=Paradise
TTITLE6=Raindrops
TTITLE7=After the Storm
TTITLE8=Edge the of Sea
EXTD=
EXTT0=
EXTT1=
EXTT2=
EXTT3=
EXTT4=
EXTT5=
EXTT6=
EXTT7=
EXTT8=
PLAYORDER=
